<svg xmlns="http://www.w3.org/2000/svg" xmlns:xlink="http://www.w3.org/1999/xlink" width="2000" zoomAndPan="magnify" viewBox="0 0 1500 383.03998" height="500" preserveAspectRatio="xMidYMid meet" version="1.0"><defs><g/><clipPath id="a41adfb7db"><path d="M 1.875 0 L 1498.125 0 L 1498.125 374.0625 L 1.875 374.0625 Z M 1.875 0 " clip-rule="nonzero"/></clipPath></defs><g clip-path="url(#a41adfb7db)"><path fill="#ffffff" d="M 1.875 0 L 1498.125 0 L 1498.125 374.0625 L 1.875 374.0625 Z M 1.875 0 " fill-opacity="1" fill-rule="nonzero"/><path fill="#000000" d="M 1.875 0 L 1498.125 0 L 1498.125 374.0625 L 1.875 374.0625 Z M 1.875 0 " fill-opacity="1" fill-rule="nonzero"/></g><g fill="#ffffff" fill-opacity="1"><g transform="translate(260.498591, 233.119264)"><g><path d="M 94.109375 0 L 77.5 0 L 62.359375 -85.609375 L 44.28125 0 L 10.328125 0 L 36.53125 -123.625 L 81.921875 -123.625 L 94.46875 -52.40625 L 135.625 -123.625 L 185.8125 -123.625 L 159.609375 0 L 125.65625 0 L 143.921875 -86.359375 Z M 94.109375 0 "/></g></g></g><g fill="#ffffff" fill-opacity="1"><g transform="translate(430.244368, 233.119264)"><g><path d="M 65.140625 -111.265625 C 64.398438 -107.578125 61.816406 -105.734375 57.390625 -105.734375 L 31.921875 -105.734375 L 35.609375 -123.625 C 36.347656 -127.3125 38.929688 -129.15625 43.359375 -129.15625 L 69.015625 -129.15625 Z M 35.421875 28.59375 L 35.0625 28.59375 L 13.09375 12.921875 C 11.007812 11.441406 9.6875 9.78125 9.125 7.9375 C 8.570312 6.09375 8.601562 3.816406 9.21875 1.109375 L 29.890625 -95.953125 L 62 -95.953125 Z M 35.421875 28.59375 "/></g></g></g><g fill="#ffffff" fill-opacity="1"><g transform="translate(481.168095, 233.119264)"><g><path d="M 21.40625 -95.953125 L 56.828125 -95.953125 L 70.484375 -71.03125 L 94.84375 -95.953125 L 125.65625 -95.953125 L 81.734375 -50.921875 L 109.78125 0 L 74.359375 0 L 59.046875 -27.671875 L 32.109375 0 L 1.109375 0 L 47.96875 -47.96875 Z M 21.40625 -95.953125 "/></g></g></g><g fill="#ffffff" fill-opacity="1"><g transform="translate(591.871864, 233.119264)"><g/></g></g><g fill="#ffffff" fill-opacity="1"><g transform="translate(637.998441, 233.119264)"><g><path d="M 100.375 0 L 10.140625 0 L 10.328125 -0.1875 L 23.0625 -59.96875 L 23.4375 -59.96875 L 45.390625 -44.28125 C 49.203125 -41.695312 50.554688 -37.945312 49.453125 -33.03125 L 47.609375 -23.984375 L 90.78125 -23.984375 L 91.890625 -29.15625 C 92.140625 -30.257812 92.140625 -31.148438 91.890625 -31.828125 C 91.640625 -32.503906 91.085938 -33.148438 90.234375 -33.765625 L 38.9375 -70.296875 C 34.75 -73.253906 31.976562 -76.640625 30.625 -80.453125 C 29.269531 -84.265625 29.207031 -88.9375 30.4375 -94.46875 L 33.03125 -106.65625 C 35.488281 -117.96875 43.113281 -123.625 55.90625 -123.625 L 142.8125 -123.625 L 130.078125 -63.65625 L 129.71875 -63.65625 L 107.75 -79.34375 C 103.9375 -81.925781 102.585938 -85.675781 103.703125 -90.59375 L 105.546875 -99.640625 L 65.5 -99.640625 L 64.578125 -95.390625 C 64.085938 -93.054688 64.582031 -91.394531 66.0625 -90.40625 L 116.796875 -54.25 C 119.015625 -52.644531 120.859375 -51.007812 122.328125 -49.34375 C 123.804688 -47.6875 124.914062 -45.875 125.65625 -43.90625 C 126.394531 -41.945312 126.765625 -39.765625 126.765625 -37.359375 C 126.765625 -34.960938 126.457031 -32.226562 125.84375 -29.15625 L 123.25 -16.96875 C 120.789062 -5.65625 113.164062 0 100.375 0 Z M 100.375 0 "/></g></g></g><g fill="#ffffff" fill-opacity="1"><g transform="translate(767.890854, 233.119264)"><g><path d="M 89.671875 -75.65625 L 57.5625 -75.65625 L 45.765625 -20.296875 L 62.921875 -20.296875 L 68.828125 -47.796875 L 69.1875 -47.796875 L 91.703125 -31.734375 C 93.054688 -30.753906 93.882812 -29.832031 94.1875 -28.96875 C 94.5 -28.101562 94.472656 -26.8125 94.109375 -25.09375 L 88.75 0 L 9.40625 0 L 38.75 -138.390625 L 39.125 -138.390625 L 61.078125 -122.703125 C 64.890625 -119.992188 66.242188 -116.117188 65.140625 -111.078125 L 62 -95.953125 L 100.5625 -95.953125 L 97.421875 -81.1875 C 96.679688 -77.5 94.097656 -75.65625 89.671875 -75.65625 Z M 89.671875 -75.65625 "/></g></g></g><g fill="#ffffff" fill-opacity="1"><g transform="translate(860.513004, 233.119264)"><g><path d="M 29.703125 -95.953125 L 61.8125 -95.953125 L 45.765625 -20.296875 L 69.1875 -20.296875 C 72.269531 -20.296875 74.054688 -21.710938 74.546875 -24.546875 L 89.671875 -95.953125 L 121.78125 -95.953125 L 104.0625 -12.734375 C 103.082031 -8.429688 101.238281 -5.234375 98.53125 -3.140625 C 95.820312 -1.046875 91.945312 0 86.90625 0 L 9.40625 0 Z M 29.703125 -95.953125 "/></g></g></g><g fill="#ffffff" fill-opacity="1"><g transform="translate(970.294218, 233.119264)"><g><path d="M 85.796875 0 L 8.296875 0 L 26.015625 -83.21875 C 27.003906 -87.519531 28.847656 -90.71875 31.546875 -92.8125 C 34.253906 -94.90625 38.128906 -95.953125 43.171875 -95.953125 L 88.5625 -95.953125 L 100.5625 -152.21875 L 100.9375 -152.21875 L 122.890625 -136.546875 C 124.984375 -134.941406 126.304688 -133.25 126.859375 -131.46875 C 127.410156 -129.6875 127.378906 -127.566406 126.765625 -125.109375 L 102.953125 -12.734375 C 101.972656 -8.429688 100.128906 -5.234375 97.421875 -3.140625 C 94.710938 -1.046875 90.835938 0 85.796875 0 Z M 68.265625 -20.296875 C 71.222656 -20.296875 72.945312 -21.648438 73.4375 -24.359375 L 84.328125 -75.65625 L 60.703125 -75.65625 C 57.753906 -75.65625 56.035156 -74.300781 55.546875 -71.59375 L 44.65625 -20.296875 Z M 68.265625 -20.296875 "/></g></g></g><g fill="#ffffff" fill-opacity="1"><g transform="translate(1079.890913, 233.119264)"><g><path d="M 65.140625 -111.265625 C 64.398438 -107.578125 61.816406 -105.734375 57.390625 -105.734375 L 31.921875 -105.734375 L 35.609375 -123.625 C 36.347656 -127.3125 38.929688 -129.15625 43.359375 -129.15625 L 69.015625 -129.15625 Z M 35.421875 28.59375 L 35.0625 28.59375 L 13.09375 12.921875 C 11.007812 11.441406 9.6875 9.78125 9.125 7.9375 C 8.570312 6.09375 8.601562 3.816406 9.21875 1.109375 L 29.890625 -95.953125 L 62 -95.953125 Z M 35.421875 28.59375 "/></g></g></g><g fill="#ffffff" fill-opacity="1"><g transform="translate(1130.81464, 233.119264)"><g><path d="M 43.171875 -95.953125 L 120.671875 -95.953125 L 102.953125 -12.734375 C 101.972656 -8.429688 100.128906 -5.234375 97.421875 -3.140625 C 94.710938 -1.046875 90.835938 0 85.796875 0 L 8.296875 0 L 26.015625 -83.21875 C 27.003906 -87.519531 28.847656 -90.71875 31.546875 -92.8125 C 34.253906 -94.90625 38.128906 -95.953125 43.171875 -95.953125 Z M 60.703125 -75.65625 C 57.753906 -75.65625 56.035156 -74.300781 55.546875 -71.59375 L 44.65625 -20.296875 L 68.265625 -20.296875 C 71.222656 -20.296875 72.945312 -21.648438 73.4375 -24.359375 L 84.328125 -75.65625 Z M 60.703125 -75.65625 "/></g></g></g></svg>