<svg xmlns="http://www.w3.org/2000/svg" viewBox="0 0 1310.81 203.85" preserveAspectRatio="xMinYMid meet" role="img" aria-label="Mix Studio">
  <g fill="#ffffff">
    <path d="M111.96,203.46h-22.19l-20.23-114.44-24.17,114.44H0L35.02,38.23h60.67l16.77,95.19,55-95.19h67.08l-35.02,165.23h-45.38l24.42-115.42-66.6,115.42Z"/>
    <path d="M313.14,75.21h42.79c.73,0,1.4.4,1.75,1.04l16.39,29.9c.64,1.17,2.24,1.39,3.18.44l30.09-30.77c.38-.38.89-.6,1.43-.6h35.61c1.77,0,2.66,2.12,1.43,3.39l-54.37,55.74c-.61.63-.74,1.59-.32,2.36l35.16,63.81c.73,1.33-.23,2.96-1.75,2.96h-42.8c-.73,0-1.39-.39-1.75-1.03l-18.61-33.62c-.65-1.17-2.24-1.38-3.18-.43l-33.54,34.47c-.38.39-.89.6-1.43.6h-35.86c-1.77,0-2.66-2.13-1.43-3.39l58.3-59.67c.62-.63.75-1.59.32-2.36l-33.16-59.86c-.74-1.33.23-2.96,1.75-2.96Z"/>
    <path d="M624.95,203.46h-120.6l.25-.25,17.02-79.9h.48l29.35,20.96c5.09,3.45,6.91,8.46,5.44,15.04l-2.48,12.08h57.71l1.48-6.9c.33-1.48.33-2.68,0-3.58-.32-.9-1.06-1.76-2.21-2.58l-68.56-48.83c-5.6-3.94-9.3-8.46-11.1-13.56-1.81-5.09-1.89-11.34-.25-18.75l3.46-16.27c3.29-15.13,13.48-22.69,30.58-22.69h116.17l-17.02,80.15h-.5l-29.35-20.96c-5.1-3.46-6.91-8.47-5.42-15.04l2.46-12.1h-53.52l-1.23,5.69c-.66,3.13,0,5.34,1.98,6.65l67.81,48.35c2.97,2.14,5.44,4.32,7.42,6.54,1.97,2.21,3.45,4.64,4.44,7.27.98,2.63,1.48,5.54,1.48,8.75s-.41,6.87-1.23,10.98l-3.46,16.27c-3.29,15.13-13.49,22.69-30.58,22.69Z"/>
    <path d="M784.26,102.33h-42.92l-15.77,74h22.94l7.9-36.75h.48l30.08,21.46c1.82,1.32,2.93,2.56,3.33,3.71.42,1.14.38,2.86-.13,5.17l-7.15,33.54h-106.04l39.21-184.96h.5l29.33,20.96c5.09,3.61,6.91,8.79,5.44,15.54l-4.19,20.21h51.54l-4.21,19.73c-.99,4.93-4.44,7.4-10.35,7.4Z"/>
    <path d="M827.92,75.21h42.92l-21.46,101.13h31.31c4.11,0,6.5-1.89,7.17-5.67l20.21-95.46h42.92l-23.67,111.23c-1.32,5.77-3.79,10.04-7.42,12.83-3.61,2.79-8.79,4.19-15.52,4.19h-103.58l27.13-128.25Z"/>
    <path d="M1049.64,203.46h-103.58l23.67-111.23c1.32-5.75,3.78-10.02,7.4-12.81,3.63-2.8,8.8-4.21,15.54-4.21h60.67L1069.37,0h.48l29.35,20.96c2.79,2.14,4.55,4.41,5.29,6.79.75,2.38.71,5.21-.1,8.5l-31.81,150.19c-1.32,5.77-3.79,10.04-7.42,12.83-3.61,2.79-8.79,4.19-15.52,4.19ZM1026.2,176.33c3.94,0,6.25-1.81,6.92-5.44l14.54-68.56h-31.56c-3.95,0-6.25,1.81-6.92,5.44l-14.54,68.56h31.56Z"/>
    <path d="M1207.23,75.21h103.58l-23.67,111.23c-1.32,5.77-3.79,10.04-7.42,12.83-3.61,2.79-8.79,4.19-15.52,4.19h-103.58l23.67-111.23c1.32-5.75,3.78-10.02,7.4-12.81,3.63-2.8,8.8-4.21,15.54-4.21ZM1230.66,102.33c-3.95,0-6.25,1.81-6.92,5.44l-14.54,68.56h31.56c3.94,0,6.25-1.81,6.92-5.44l14.54-68.56h-31.56Z"/>
    <g>
      <path d="M300.14,54.75l5.17-23.94h-34.27c-5.92,0-9.37,2.47-10.35,7.42l-4.94,23.92h34.04c5.92,0,9.36-2.46,10.35-7.4Z"/>
      <polygon points="268.51 203.85 295.96 75.21 253.04 75.21 225.65 203.85 268.51 203.85"/>
    </g>
    <g>
      <path d="M1168.51,54.75l5.17-23.94h-34.27c-5.92,0-9.37,2.47-10.35,7.42l-4.94,23.92h34.04c5.92,0,9.36-2.46,10.35-7.4Z"/>
      <polygon points="1136.88 203.85 1164.32 75.21 1121.41 75.21 1094.01 203.85 1136.88 203.85"/>
    </g>
  </g>
</svg>
