<svg xmlns="http://www.w3.org/2000/svg" viewBox="0 0 734.42 753.63" role="img" aria-label="Modatory logo">
  <path fill="#fdc302" d="M615.65 208.12c-15.14-3.45-30.62-1.14-44.15 7.05L366.77 339.12l-82.59-50.59-121.3-73.24c-13.51-8.16-29.27-10.69-44.22-7.24l-.38-36.63c-.19-18.31 7.8-38.19 24.31-47.95L339 7.31c16.59-9.81 38.81-9.68 55.26-.02l190.82 111.96c18.08 10.61 30.68 27.5 30.64 49.47l-.08 39.4Z"/>
  <path fill="#47ad49" d="m366.77 339.12.09.87-48.9 31.04-59.13 36.83c-12.32 7.67-19 19.03-23.8 32.13-2.52-1.15-4.65-2.62-7.36-4.35l-80.77-51.51c-17.97-11.46-28.62-29-28.66-50.54L118 208.69l.66-.64c14.95-3.45 30.71-.92 44.22 7.24l121.3 73.24 82.59 50.59Z"/>
  <path fill="#432dd0" d="m332.59 501.15 34.33 21.71-.18 179.91.13.97c-.22-.13-.57 0-.81-.09-35.73-24.32-73.67-45.47-110.31-69.84-13.42-8.92-21.64-25.24-21.67-41.48l-.32-137.55c-.01-4.96.41-9.12 1.4-13.36.91.05 1.9.37 2.9.98l22.1 13.57 72.44 45.17Z"/>
  <path fill="#564aa7" d="m366.92 522.86-34.33-21.71-72.44-45.17-22.1-13.57c-1-.61-1.99-.93-2.9-.98.1-.43-.28-1.02-.12-1.44 4.81-13.1 11.49-24.46 23.8-32.13l59.13-36.83 48.91-31.04.05 182.87Z"/>
  <path fill="#822292" d="M499.44 441.41c.94 2.58 1.52 5.3 1.51 8.73l-.21 142.47c-.03 18.67-10.55 34.44-25.85 43.95l-104.6 65.01c-1.35.84-2.57.73-3.55 1.2l.18-179.91 92.76-57.37 31.62-19.69c2.77-1.72 5.25-3.57 8.15-4.39Z"/>
  <path fill="#973975" d="M499.54 440.09c.11.4-.16.91-.1 1.32-2.9.82-5.39 2.67-8.15 4.39l-31.62 19.69-92.76 57.37-.05-182.87c1.98.17 3.37 1.31 5.38 2.56l104.15 65.36c11.88 7.46 19.61 19.04 23.15 32.17Z"/>
  <path fill="#026cfc" d="m118 208.7.24 124.9c.04 21.54 10.69 39.08 28.66 50.54l80.77 51.51c2.71 1.73 4.84 3.2 7.36 4.35-.15.42.22 1.01.12 1.44-.98 4.23-1.41 8.4-1.4 13.36l.32 137.55c.04 16.25 8.25 32.56 21.67 41.48 36.65 24.36 74.58 45.52 110.31 69.84l-71.48 42.61c-16.45 9.81-39.02 9.86-55.74-.07L28.62 621.52C12.66 612.05.29 594.24.27 574.83L0 304.32c-.02-17.99 9.59-35.35 24.74-44.31l74.56-44.12c6.08-3.6 12.06-6.74 18.7-7.2Z"/>
  <path fill="#fb2026" d="M734.42 308.79c-.63-.38-1.3-.07-1.56 1.06V576.2c.21.86.39 1.09.83 1-1.39 17.82-11.84 34.61-27.56 44.06L501.5 744.21c-20.46 12.29-44.38 11.76-65.01-.17l-69.63-40.28-.13-.97c.98-.46 2.21-.36 3.55-1.2l104.6-65.01c15.3-9.51 25.83-25.28 25.85-43.95l.21-142.47c0-3.43-.57-6.15-1.51-8.73-.06-.41.21-.92.1-1.32 1.1-.15 1.99-.65 3.27-1.49l90.13-58.72c13.61-8.87 22.36-24.62 22.4-40.8l.31-130.96c6.52 1.49 12.24 3.64 18.42 7.3l77.83 46.13c16.79 9.95 22.53 29.12 22.52 47.24Z"/>
  <path fill="#fa0f17" d="m734.42 308.79-.04 263.53c0 2.07-.58 3.41-.69 4.88-.44.1-.62-.13-.83-1V309.85c.25-1.13.92-1.44 1.55-1.06Z"/>
  <path fill="#fc6f01" d="m615.65 208.12-.31 130.96c-.04 16.18-8.79 31.93-22.4 40.8l-90.13 58.72c-1.28.83-2.17 1.33-3.27 1.49-3.54-13.13-11.27-24.71-23.15-32.17l-104.15-65.36c-2-1.26-3.4-2.39-5.38-2.56l-.09-.87L571.5 215.18c13.53-8.19 29.02-10.5 44.15-7.05Z"/>
</svg>
