<svg xmlns="http://www.w3.org/2000/svg" xmlns:xlink="http://www.w3.org/1999/xlink" width="2000" zoomAndPan="magnify" viewBox="0 0 1500 374.999991" height="500" preserveAspectRatio="xMidYMid meet" version="1.0"><defs><g/><clipPath id="e4a75eb8b8"><path d="M 233.464844 234.789062 L 1241.152344 234.789062 L 1241.152344 337.5 L 233.464844 337.5 Z M 233.464844 234.789062 " clip-rule="nonzero"/></clipPath><clipPath id="aeff5ba481"><path d="M 0.464844 0.789062 L 1008.152344 0.789062 L 1008.152344 103.5 L 0.464844 103.5 Z M 0.464844 0.789062 " clip-rule="nonzero"/></clipPath><clipPath id="7c775345fa"><rect x="0" width="1009" y="0" height="104"/></clipPath></defs><g fill="#ffffff" fill-opacity="1"><g transform="translate(259.271757, 233.703515)"><g><path d="M 94.328125 0 L 77.6875 0 L 62.515625 -85.828125 L 44.390625 0 L 10.359375 0 L 36.625 -123.921875 L 82.125 -123.921875 L 94.703125 -52.53125 L 135.953125 -123.921875 L 186.265625 -123.921875 L 160 0 L 125.96875 0 L 144.28125 -86.5625 Z M 94.328125 0 "/></g></g></g><g fill="#ffffff" fill-opacity="1"><g transform="translate(429.442966, 233.703515)"><g><path d="M 65.296875 -111.53125 C 64.554688 -107.832031 61.96875 -105.984375 57.53125 -105.984375 L 32 -105.984375 L 35.703125 -123.921875 C 36.441406 -127.628906 39.03125 -129.484375 43.46875 -129.484375 L 69.171875 -129.484375 Z M 35.515625 28.671875 L 35.140625 28.671875 L 13.125 12.953125 C 11.03125 11.472656 9.707031 9.804688 9.15625 7.953125 C 8.601562 6.097656 8.632812 3.816406 9.25 1.109375 L 29.96875 -96.1875 L 62.15625 -96.1875 Z M 35.515625 28.671875 "/></g></g></g><g fill="#ffffff" fill-opacity="1"><g transform="translate(480.494323, 233.703515)"><g><path d="M 21.453125 -96.1875 L 56.96875 -96.1875 L 70.65625 -71.21875 L 95.078125 -96.1875 L 125.96875 -96.1875 L 81.9375 -51.046875 L 110.0625 0 L 74.546875 0 L 59.1875 -27.75 L 32.1875 0 L 1.109375 0 L 48.09375 -48.09375 Z M 21.453125 -96.1875 "/></g></g></g><g fill="#ffffff" fill-opacity="1"><g transform="translate(591.475548, 233.703515)"><g/></g></g><g fill="#ffffff" fill-opacity="1"><g transform="translate(637.717732, 233.703515)"><g><path d="M 100.625 0 L 10.171875 0 L 10.359375 -0.1875 L 23.125 -60.109375 L 23.484375 -60.109375 L 45.5 -44.390625 C 49.320312 -41.804688 50.679688 -38.046875 49.578125 -33.109375 L 47.71875 -24.046875 L 91 -24.046875 L 92.109375 -29.21875 C 92.359375 -30.332031 92.359375 -31.226562 92.109375 -31.90625 C 91.867188 -32.582031 91.316406 -33.226562 90.453125 -33.84375 L 39.03125 -70.46875 C 34.832031 -73.425781 32.054688 -76.816406 30.703125 -80.640625 C 29.347656 -84.460938 29.285156 -89.148438 30.515625 -94.703125 L 33.109375 -106.90625 C 35.578125 -118.25 43.222656 -123.921875 56.046875 -123.921875 L 143.171875 -123.921875 L 130.40625 -63.8125 L 130.03125 -63.8125 L 108.015625 -79.53125 C 104.191406 -82.125 102.835938 -85.882812 103.953125 -90.8125 L 105.796875 -99.890625 L 65.65625 -99.890625 L 64.734375 -95.625 C 64.242188 -93.28125 64.738281 -91.617188 66.21875 -90.640625 L 117.078125 -54.375 C 119.304688 -52.769531 121.160156 -51.132812 122.640625 -49.46875 C 124.117188 -47.8125 125.226562 -45.992188 125.96875 -44.015625 C 126.707031 -42.046875 127.078125 -39.859375 127.078125 -37.453125 C 127.078125 -35.046875 126.769531 -32.300781 126.15625 -29.21875 L 123.5625 -17.015625 C 121.09375 -5.671875 113.445312 0 100.625 0 Z M 100.625 0 "/></g></g></g><g fill="#ffffff" fill-opacity="1"><g transform="translate(767.935694, 233.703515)"><g><path d="M 89.890625 -75.84375 L 57.703125 -75.84375 L 45.875 -20.34375 L 63.078125 -20.34375 L 69 -47.90625 L 69.359375 -47.90625 L 91.921875 -31.8125 C 93.285156 -30.820312 94.117188 -29.894531 94.421875 -29.03125 C 94.734375 -28.175781 94.703125 -26.882812 94.328125 -25.15625 L 88.96875 0 L 9.4375 0 L 38.84375 -138.71875 L 39.21875 -138.71875 L 61.21875 -123 C 65.039062 -120.289062 66.398438 -116.40625 65.296875 -111.34375 L 62.15625 -96.1875 L 100.8125 -96.1875 L 97.65625 -81.390625 C 96.914062 -77.691406 94.328125 -75.84375 89.890625 -75.84375 Z M 89.890625 -75.84375 "/></g></g></g><g fill="#ffffff" fill-opacity="1"><g transform="translate(860.789982, 233.703515)"><g><path d="M 29.78125 -96.1875 L 61.96875 -96.1875 L 45.875 -20.34375 L 69.359375 -20.34375 C 72.441406 -20.34375 74.234375 -21.757812 74.734375 -24.59375 L 89.890625 -96.1875 L 122.078125 -96.1875 L 104.328125 -12.765625 C 103.335938 -8.441406 101.484375 -5.234375 98.765625 -3.140625 C 96.054688 -1.046875 92.175781 0 87.125 0 L 9.4375 0 Z M 29.78125 -96.1875 "/></g></g></g><g fill="#ffffff" fill-opacity="1"><g transform="translate(970.84634, 233.703515)"><g><path d="M 86.015625 0 L 8.328125 0 L 26.078125 -83.421875 C 27.066406 -87.734375 28.914062 -90.9375 31.625 -93.03125 C 34.34375 -95.132812 38.226562 -96.1875 43.28125 -96.1875 L 88.78125 -96.1875 L 100.8125 -152.59375 L 101.171875 -152.59375 L 123.1875 -136.875 C 125.28125 -135.269531 126.601562 -133.570312 127.15625 -131.78125 C 127.71875 -130 127.691406 -127.875 127.078125 -125.40625 L 103.21875 -12.765625 C 102.226562 -8.441406 100.375 -5.234375 97.65625 -3.140625 C 94.945312 -1.046875 91.066406 0 86.015625 0 Z M 68.4375 -20.34375 C 71.394531 -20.34375 73.125 -21.703125 73.625 -24.421875 L 84.53125 -75.84375 L 60.859375 -75.84375 C 57.898438 -75.84375 56.171875 -74.484375 55.671875 -71.765625 L 44.765625 -20.34375 Z M 68.4375 -20.34375 "/></g></g></g><g fill="#ffffff" fill-opacity="1"><g transform="translate(1080.717716, 233.703515)"><g><path d="M 65.296875 -111.53125 C 64.554688 -107.832031 61.96875 -105.984375 57.53125 -105.984375 L 32 -105.984375 L 35.703125 -123.921875 C 36.441406 -127.628906 39.03125 -129.484375 43.46875 -129.484375 L 69.171875 -129.484375 Z M 35.515625 28.671875 L 35.140625 28.671875 L 13.125 12.953125 C 11.03125 11.472656 9.707031 9.804688 9.15625 7.953125 C 8.601562 6.097656 8.632812 3.816406 9.25 1.109375 L 29.96875 -96.1875 L 62.15625 -96.1875 Z M 35.515625 28.671875 "/></g></g></g><g fill="#ffffff" fill-opacity="1"><g transform="translate(1131.769074, 233.703515)"><g><path d="M 43.28125 -96.1875 L 120.96875 -96.1875 L 103.21875 -12.765625 C 102.226562 -8.441406 100.375 -5.234375 97.65625 -3.140625 C 94.945312 -1.046875 91.066406 0 86.015625 0 L 8.328125 0 L 26.078125 -83.421875 C 27.066406 -87.734375 28.914062 -90.9375 31.625 -93.03125 C 34.34375 -95.132812 38.226562 -96.1875 43.28125 -96.1875 Z M 60.859375 -75.84375 C 57.898438 -75.84375 56.171875 -74.484375 55.671875 -71.765625 L 44.765625 -20.34375 L 68.4375 -20.34375 C 71.394531 -20.34375 73.125 -21.703125 73.625 -24.421875 L 84.53125 -75.84375 Z M 60.859375 -75.84375 "/></g></g></g><g clip-path="url(#e4a75eb8b8)"><g transform="matrix(1, 0, 0, 1, 233, 234)"><g clip-path="url(#7c775345fa)"><g clip-path="url(#aeff5ba481)">000000"[^>]*/>#000000" d="M 0.464844 0.789062 L 1008.328125 0.789062 L 1008.328125 103.5 L 0.464844 103.5 Z M 0.464844 0.789062 " fill-opacity="1" fill-rule="nonzero"/></g></g></g></g></svg>
